<svg width="118" height="534" xmlns="http://www.w3.org/2000/svg" xmlns:xlink="http://www.w3.org/1999/xlink" xml:space="preserve" overflow="hidden"><defs><clipPath id="clip0"><rect x="2932" y="571" width="118" height="534"/></clipPath></defs><g clip-path="url(#clip0)" transform="translate(-2932 -571)"><path d="M2983.86 599.428C2982.18 595.816 2980.5 592.202 2978.9 588.576 2975.6 581.157 2969.46 575.911 2959.55 572.067 2958.15 571.394 2956.62 571.031 2955.06 571.002 2953.51 570.973 2951.97 571.279 2950.54 571.899 2949.31 572.599 2948.24 573.56 2947.41 574.715 2946.58 575.869 2946.01 577.189 2945.74 578.584 2944.59 583.228 2944.01 587.996 2944.01 592.781 2943.84 604.322 2943.75 615.865 2943.67 627.407 2943.53 646.766 2943.39 666.789 2942.79 686.451 2941.94 714.446 2940.83 742.892 2939.77 770.411 2938.66 798.97 2937.51 828.505 2936.64 857.56 2935.18 906.489 2934.1 956.241 2933.05 1004.36L2932.19 1043.8C2931.93 1055.8 2931.94 1068.29 2932.22 1080.93 2932 1085.57 2932.96 1090.2 2935 1094.37 2936.27 1096.49 2940.88 1103.5 2946.77 1104.76 2947.52 1104.92 2948.29 1105 2949.05 1105 2955.2 1105 2959.43 1099.44 2960.88 1093.7 2962.08 1088.67 2962.68 1083.51 2962.67 1078.34 2962.82 1057.08 2962.92 1035.81 2962.97 1014.54 2963.01 1001.47 2963.06 988.407 2963.12 975.339 2963.13 972.638 2963.31 969.969 2963.51 966.873 2963.57 966.017 2963.63 965.133 2963.68 964.218 2969.66 964.218 2975.57 964.249 2981.42 964.307 2996.79 964.407 3011.29 964.507 3026.08 964.06 3043.17 963.547 3049.43 957.138 3050 939.568 3050.03 936.754 3049.89 933.94 3049.57 931.144L3049.37 928.918C3049.04 924.911 3048.68 920.907 3048.31 916.902 3047.63 909.526 3046.94 901.894 3046.49 894.395L3046 886.231C3043.74 848.26 3041.39 808.997 3032.69 771.174 3023.15 729.757 3011.96 685.993 2997.47 633.455 2993.88 621.757 2989.32 610.376 2983.86 599.428ZM3021.76 934.219 2964.85 934.219C2964.32 897.842 2965.41 859.899 2966.47 823.187 2966.94 807.008 2967.42 790.281 2967.77 773.796 2968.55 735.931 2969.32 698.067 2970.05 660.201L2970.75 624.953C2997.52 715.814 3023.25 822.279 3021.75 934.219L3021.76 934.219Z" fill-rule="evenodd"/></g></svg>