<svg width="1561" height="1317" xmlns="http://www.w3.org/2000/svg" xmlns:xlink="http://www.w3.org/1999/xlink" xml:space="preserve" overflow="hidden"><defs><clipPath id="clip0"><rect x="887" y="718" width="1561" height="1317"/></clipPath></defs><g clip-path="url(#clip0)" transform="translate(-887 -718)"><path d="M1667.5 823.401C1634.28 823.401 1601.06 830.902 1570.89 845.905 1512.72 874.823 1473.69 927.672 1464.84 987.314L1463.69 1002.79 1871.3 1002.79 1870.16 987.314C1861.31 927.672 1822.28 874.824 1764.11 845.905 1733.94 830.902 1700.72 823.401 1667.5 823.401ZM1667.5 718C1718.93 718 1770.36 730.179 1816.87 754.537 1903.55 799.937 1961.51 881.516 1974.64 973.338L1976.74 1002.79 2384.07 1002.79C2419.38 1002.79 2448 1031.41 2448 1066.72L2448 1971.08C2448 2006.38 2419.38 2035 2384.07 2035L950.926 2035C915.621 2035 887 2006.38 887 1971.08L887 1066.72C887 1031.41 915.621 1002.79 950.926 1002.79L1358.26 1002.79 1360.36 973.337C1373.49 881.516 1431.45 799.937 1518.13 754.537 1564.64 730.179 1616.07 718 1667.5 718Z" fill-rule="evenodd"/></g></svg>