<svg width="552" height="360" xmlns="http://www.w3.org/2000/svg" xmlns:xlink="http://www.w3.org/1999/xlink" xml:space="preserve" overflow="hidden"><g transform="translate(-800 -260)"><path d="M1006.98 402.388C965.821 404.945 985.376 402.771 978.116 407.112 970.856 411.453 966.751 419.513 963.419 428.433 960.087 437.352 948.746 456.654 958.124 460.629 967.502 464.603 1001.36 462.369 1019.69 452.28 1038.02 442.191 1064.16 405.853 1069.35 399.205L1104.03 397.606C1096.78 410.81 1060.51 466.76 1025.84 478.426 995.808 491.82 961.458 481.805 945.407 494.358 920.424 513.896 910.858 592.755 889.668 611.359 868.479 629.962 826.79 611.13 818.273 605.979 824.641 598.559 831.009 591.138 837.376 583.718 847.68 590.458 874.064 610.719 892.956 542.648 905.166 520.26 937.471 438.225 939.689 415.558 948.133 396.498 918.356 395.048 904.519 400.091 893.092 411.648 872.045 460.315 864.606 476.642 857.168 492.969 809.059 572.071 837.267 583.452 830.697 591.082 824.127 598.711 817.557 606.341 811.907 599.955 793.636 580.647 803.585 544.624 813.533 508.602 867.389 425.364 877.246 390.205 853.668 380.371 848.739 367.918 842.055 358.337 835.372 348.755 836.12 341.561 837.145 332.718 839.547 312.884 852.829 295.662 871.628 292.348 891.278 288.883 911.411 288.168 933.37 286.054 937.752 274.737 949.016 270.342 962.842 269.707 1013.85 267.358 1069.61 264.084 1115.84 262.632 1162.08 261.181 1209.68 261.039 1240.26 260.998 1270.84 260.957 1281.86 259.608 1299.33 262.385 1316.79 265.162 1337.97 256.906 1345.05 277.66 1352.12 298.414 1356.43 350.075 1341.76 386.91 1338.05 388.39 1273.36 389.709 1253.91 390.519 1234.46 391.328 1266.21 389.789 1225.06 391.767L1006.98 402.388ZM1319.01 290.023C1214.54 289.064 1072.59 289.936 969.461 299.561L963.876 377.084 1319.91 360.428 1319.01 290.023ZM936.561 318.308C926.121 317.621 916.505 316.363 906.927 316.526 897.337 316.729 887.775 317.677 878.332 319.364 869.514 320.902 864.456 327.482 862.913 335.872 861.365 344.318 865.939 350.381 873.039 354.61 875.04 355.935 877.148 357.093 879.336 358.073 897.652 365.157 917.333 367.991 936.906 366.37L936.561 318.308Z" fill-rule="evenodd"/></g></svg>