<svg width="256" height="1159" xmlns="http://www.w3.org/2000/svg" xmlns:xlink="http://www.w3.org/1999/xlink" xml:space="preserve" overflow="hidden"><defs><clipPath id="clip0"><rect x="2611" y="369" width="256" height="1159"/></clipPath></defs><g clip-path="url(#clip0)" transform="translate(-2611 -369)"><path d="M2723.5 430.7C2719.86 422.861 2716.21 415.017 2712.74 407.147 2705.58 391.045 2692.26 379.659 2670.76 371.316 2667.73 369.855 2664.41 369.067 2661.02 369.004 2657.66 368.941 2654.32 369.605 2651.22 370.951 2648.55 372.47 2646.23 374.556 2644.43 377.063 2642.63 379.567 2641.39 382.432 2640.8 385.46 2638.31 395.54 2637.05 405.888 2637.05 416.273 2636.68 441.322 2636.49 466.375 2636.31 491.426 2636.01 533.443 2635.71 576.901 2634.4 619.576 2632.56 680.336 2630.15 742.076 2627.85 801.804 2625.44 863.788 2622.95 927.892 2621.06 990.953 2617.89 1097.15 2615.55 1205.13 2613.27 1309.57L2611.41 1395.17C2610.84 1421.22 2610.86 1448.32 2611.47 1475.76 2611 1485.83 2613.08 1495.88 2617.5 1504.93 2620.26 1509.53 2630.26 1524.74 2643.04 1527.48 2644.67 1527.83 2646.34 1528 2647.98 1528 2661.33 1528 2670.5 1515.93 2673.65 1503.47 2676.25 1492.56 2677.55 1481.36 2677.53 1470.14 2677.86 1423.99 2678.07 1377.83 2678.18 1331.66 2678.27 1303.3 2678.38 1274.95 2678.51 1246.58 2678.53 1240.72 2678.92 1234.93 2679.35 1228.21 2679.49 1226.35 2679.61 1224.43 2679.72 1222.45L2718.21 1222.64 2815.1 1222.1C2862.49 1220.99 2865.75 1207.08 2866.99 1168.94 2867.06 1162.84 2866.75 1156.73 2866.06 1150.66 2865.91 1149.05 2865.77 1147.44 2865.63 1145.83 2864.91 1137.13 2864.13 1128.44 2863.33 1119.75 2861.85 1103.74 2860.35 1087.18 2859.38 1070.9L2858.31 1053.18C2853.41 970.768 2848.31 885.551 2829.44 803.46 2808.74 713.568 2784.47 618.582 2753.03 504.553 2745.24 479.163 2735.35 454.462 2723.5 430.7ZM2805.73 1157.33 2682.26 1157.33C2681.11 1078.38 2683.48 996.03 2685.78 916.349 2686.8 881.235 2687.84 844.93 2688.6 809.151 2690.29 726.968 2691.96 644.787 2693.54 562.603 2694.05 537.102 2694.56 511.601 2695.06 486.1 2753.14 683.306 2808.96 914.379 2805.7 1157.33L2805.73 1157.33Z" fill-rule="evenodd"/></g></svg>