<svg width="257" height="1160" xmlns="http://www.w3.org/2000/svg" xmlns:xlink="http://www.w3.org/1999/xlink" xml:space="preserve" overflow="hidden"><g transform="translate(-2610 -368)"><path d="M2723.45 430.494C2719.8 422.654 2716.16 414.81 2712.68 406.941 2705.53 390.838 2692.21 379.452 2670.71 371.109 2667.67 369.649 2664.35 368.861 2660.97 368.798 2657.6 368.735 2654.26 369.399 2651.16 370.744 2648.49 372.264 2646.17 374.35 2644.37 376.857 2642.57 379.361 2641.33 382.226 2640.75 385.254 2638.25 395.333 2636.99 405.682 2636.99 416.067 2636.62 441.116 2636.43 466.169 2636.25 491.22 2635.95 533.237 2635.65 576.695 2634.35 619.37 2632.5 680.13 2630.09 741.87 2627.79 801.598 2625.39 863.582 2622.89 927.686 2621 990.747 2617.84 1096.94 2615.49 1204.93 2613.22 1309.36L2611.35 1394.96C2610.79 1421.01 2610.81 1448.12 2611.41 1475.55 2610.94 1485.62 2613.02 1495.67 2617.45 1504.72 2620.2 1509.32 2630.2 1524.54 2642.98 1527.27 2644.61 1527.62 2646.28 1527.79 2647.93 1527.79 2661.27 1527.79 2670.45 1515.73 2673.59 1503.27 2676.19 1492.35 2677.5 1481.15 2677.47 1469.93 2677.8 1423.79 2678.02 1377.62 2678.13 1331.46 2678.21 1303.09 2678.32 1274.74 2678.45 1246.38 2678.47 1240.51 2678.86 1234.72 2679.3 1228 2679.43 1226.14 2679.56 1224.22 2679.67 1222.24 2692.64 1222.24 2705.46 1222.31 2718.15 1222.43 2751.5 1222.65 2782.95 1222.87 2815.04 1221.9 2852.12 1220.78 2865.7 1206.87 2866.93 1168.74 2867 1162.63 2866.69 1156.52 2866 1150.45L2865.57 1145.62C2864.85 1136.93 2864.07 1128.24 2863.27 1119.54 2861.79 1103.53 2860.29 1086.97 2859.32 1070.69L2858.26 1052.97C2853.35 970.562 2848.25 885.345 2829.38 803.254 2808.68 713.362 2784.41 618.376 2752.97 504.346 2745.18 478.957 2735.29 454.255 2723.45 430.494ZM2805.67 1157.13 2682.2 1157.13C2681.05 1078.18 2683.42 995.824 2685.72 916.143 2686.74 881.028 2687.78 844.724 2688.54 808.945 2690.23 726.762 2691.9 644.581 2693.49 562.397L2695 485.894C2753.08 683.1 2808.9 914.173 2805.65 1157.13L2805.67 1157.13Z" fill-rule="evenodd"/></g></svg>