<svg width="556" height="2144" xmlns="http://www.w3.org/2000/svg" xmlns:xlink="http://www.w3.org/1999/xlink" xml:space="preserve" overflow="hidden"><g transform="translate(-1267 -186)"><path d="M1718.75 1629.38C1697.66 1727.7 1708.29 2011.57 1695.31 2105.88 1693.4 2129.14 1694.24 2154.72 1685.57 2181.5 1671.6 2209.95 1659.69 2239.65 1643.26 2266.58 1629.75 2289.17 1609.64 2307.07 1585.63 2317.85 1561.61 2328.63 1534.88 2331.77 1509.01 2326.85 1451.02 2315.53 1419.8 2294.29 1397.31 2216.5 1374.83 2138.71 1382.87 1963.47 1374.1 1860.12 1365.33 1756.76 1362.32 1662.33 1344.71 1596.37 1327.1 1530.41 1260.66 1568.7 1268.44 1464.37 1417.15 1470.05 1383.04 1001.9 1408.58 863.834 1434.12 725.77 1420.36 711.997 1421.68 635.989 1422.71 558.787 1429.39 558.258 1471.6 412.334 1489.07 351.939 1523.77 297.923 1549.85 240.718 1555.88 226.514 1564.26 213.419 1574.63 201.995 1599.43 176.936 1634.66 182.965 1652.94 213.634 1655.36 217.718 1642.31 171.536 1658.9 226.542 1675.48 281.549 1721.26 437.962 1752.45 543.671 1756.02 554.95 1747.16 733.514 1743.71 874.2 1740.27 1014.89 1718.75 1283.69 1731.78 1387.79 1744.8 1491.88 1812.59 1442.44 1821.88 1498.75 1831.16 1555.06 1722.57 1456.06 1718.75 1629.38ZM1446.52 1549.28C1442.26 1579.92 1470.86 2008.69 1476.18 2117.56 1481.5 2226.43 1475.48 2174.3 1478.43 2202.51 1481.09 2228.85 1499.41 2245.17 1523.83 2251.52 1548.41 2257.89 1567.27 2245.7 1581.26 2225.66 1585.6 2220.04 1613.41 2180.37 1627.2 2066.89 1640.99 1953.41 1664.58 1602.87 1663.99 1544.79L1446.52 1549.28ZM1669.97 1457.21C1654.15 1287.72 1686.45 698.862 1670.62 529.375L1612.87 327.073 1605.03 328.491C1586.79 413.786 1547.93 523.144 1529.69 608.438L1438.29 1444.3 1669.97 1457.21Z" fill-rule="evenodd"/></g></svg>