<svg width="415" height="1871" xmlns="http://www.w3.org/2000/svg" xmlns:xlink="http://www.w3.org/1999/xlink" xml:space="preserve" overflow="hidden"><defs><clipPath id="clip0"><rect x="2129" y="454" width="415" height="1871"/></clipPath></defs><g clip-path="url(#clip0)" transform="translate(-2129 -454)"><path d="M2310.95 553.552C2305.06 540.903 2299.17 528.247 2293.53 515.55 2281.99 489.57 2260.42 471.199 2225.67 457.736 2220.75 455.379 2215.38 454.108 2209.92 454.006 2204.47 453.905 2199.06 454.976 2194.05 457.149 2189.72 459.601 2185.97 462.967 2183.06 467.008 2180.16 471.05 2178.16 475.673 2177.22 480.559 2173.18 496.822 2171.14 513.518 2171.15 530.273 2170.53 570.689 2170.24 611.113 2169.95 651.529 2169.46 719.325 2168.96 789.44 2166.85 858.295 2163.87 956.331 2159.99 1055.94 2156.25 1152.31 2152.36 1252.32 2148.33 1355.75 2145.29 1457.5 2140.17 1628.84 2136.37 1803.06 2132.7 1971.57L2129.67 2109.67C2128.74 2151.7 2128.77 2195.45 2129.78 2239.72 2129.02 2255.97 2132.37 2272.16 2139.51 2286.78 2143.98 2294.2 2160.17 2318.76 2180.84 2323.16 2183.47 2323.71 2186.15 2324 2188.84 2324 2210.4 2324 2225.25 2304.53 2230.34 2284.42 2234.55 2266.81 2236.66 2248.76 2236.6 2230.66 2237.13 2156.18 2237.49 2081.71 2237.66 2007.23 2237.82 1961.47 2237.99 1915.71 2238.19 1869.94 2238.23 1860.49 2238.86 1851.14 2239.57 1840.3 2239.77 1837.3 2239.97 1834.2 2240.16 1831 2261.12 1831 2281.86 1831.11 2302.38 1831.31 2356.3 1831.66 2407.2 1832.01 2459.09 1830.44 2519.04 1828.65 2541 1806.21 2542.98 1744.68 2543.1 1734.82 2542.61 1724.97 2541.5 1715.18L2540.8 1707.38C2539.63 1693.35 2538.35 1679.33 2537.07 1665.31 2534.7 1639.47 2532.27 1612.75 2530.68 1586.49L2528.97 1557.9C2521.05 1424.93 2512.8 1287.43 2482.27 1154.99 2448.81 1009.95 2409.53 856.692 2358.7 672.708 2346.09 631.746 2330.12 591.89 2310.95 553.552ZM2443.91 1725.95 2244.26 1725.95C2242.39 1598.56 2246.23 1465.69 2249.95 1337.13 2251.59 1280.47 2253.28 1221.9 2254.5 1164.17 2257.25 1031.57 2259.92 898.972 2262.51 766.37L2264.96 642.937C2358.88 961.12 2449.14 1333.95 2443.89 1725.95L2443.91 1725.95Z" fill-rule="evenodd"/></g></svg>