<svg width="538" height="1658" xmlns="http://www.w3.org/2000/svg" xmlns:xlink="http://www.w3.org/1999/xlink" xml:space="preserve" overflow="hidden"><g transform="translate(-1915 -258)"><path d="M2324.6 1355.92C2309.49 1430.58 2305.45 1673.87 2296.45 1745.42 2295.21 1763.06 2296.07 1782.43 2289.74 1802.79 2279.41 1824.47 2270.65 1847.07 2258.44 1867.61 2248.41 1884.84 2233.33 1898.58 2215.24 1906.95 2197.15 1915.34 2176.92 1917.95 2157.29 1914.45 2113.26 1906.39 2089.42 1890.58 2071.7 1831.86 2053.98 1773.13 2058.52 1640.32 2050.97 1562.11 2043.41 1483.89 2037.01 1414.84 2026.37 1362.58 2014.95 1306.53 1917.23 1309.61 1915.45 1272.22 1913.67 1234.82 1992.17 1230.83 2046.61 1225.89 2048.2 1154.91 2057.37 934.026 2068.27 807.141 2079.17 680.257 2093.76 548.71 2112.01 464.584 2130.26 380.457 2159.26 334.871 2177.75 302.385 2196.24 269.898 2213.35 259.931 2226.36 259.513 2239.37 259.095 2247.78 252.593 2263.53 299.873 2276.17 350.48 2305.04 470.09 2317.48 553.349 2329.91 636.609 2341.45 718.766 2343.27 830.534 2345.09 942.301 2333.78 1072.81 2328.4 1223.96 2419.22 1228.14 2450.37 1216.68 2452.74 1254.09 2455.12 1291.5 2343.14 1279.6 2324.6 1355.92ZM2103.93 1307.11C2102.7 1357.86 2125.72 1670.64 2130.56 1756.21 2135.41 1841.78 2126.48 1804.74 2133.02 1820.54 2139.57 1836.33 2151.3 1846.39 2169.85 1850.99 2188.53 1855.6 2200.7 1852.47 2211.12 1837.16 2214.35 1832.87 2235.36 1805.44 2244.51 1716.49 2253.66 1627.55 2267 1347.49 2266.04 1303.5L2103.93 1307.11ZM2262.87 1227.32C2271.68 1045.37 2277.36 1065.54 2270.22 922.239 2263.07 778.933 2267.92 533.37 2219.98 367.482 2163.14 510.032 2144.54 746.38 2125.57 890.074 2106.6 1033.77 2123.37 1022.54 2106.17 1229.65L2262.87 1227.32Z" fill-rule="evenodd"/></g></svg>